<?xml version="1.0" standalone="no"?>
<!DOCTYPE svg PUBLIC "-//W3C//DTD SVG 20010904//EN"
 "http://www.w3.org/TR/2001/REC-SVG-20010904/DTD/svg10.dtd">
<svg version="1.0" xmlns="http://www.w3.org/2000/svg"
 width="512.000000pt" height="512.000000pt" viewBox="0 0 512.000000 512.000000"
 preserveAspectRatio="xMidYMid meet">
<metadata>
Created by potrace 1.16, written by Peter Selinger 2001-2019
</metadata>
<g transform="translate(0.000000,512.000000) scale(0.100000,-0.100000)"
fill="#000000" stroke="none">
<path d="M2135 3958 c-579 -297 -959 -481 -963 -468 -2 6 -8 7 -14 4 -14 -9
-28 15 -28 48 0 15 -4 29 -10 33 -5 3 -8 11 -6 18 1 7 1 9 -1 4 -3 -4 -8 -5
-11 -3 -4 2 -99 -42 -212 -99 l-205 -102 -2 -74 c-3 -118 -12 -107 156 -169
l150 -55 1 -435 c0 -239 -3 -693 -6 -1008 l-7 -572 -143 0 c-121 0 -144 -2
-144 -15 0 -17 -150 -15 1705 -20 1271 -3 2018 3 2010 16 -3 4 3 10 12 12 10
3 -51 5 -134 6 l-153 1 -1 393 c-1 215 -4 381 -6 367 -3 -13 -12 -30 -21 -36
-15 -11 -17 -51 -20 -363 l-3 -351 -64 0 -65 0 -1 478 c0 262 -2 473 -4 467
-2 -5 -23 -71 -46 -145 -24 -74 -46 -137 -49 -140 -3 -3 -12 -20 -19 -37 -8
-18 -17 -33 -22 -33 -5 0 -9 261 -9 598 l0 597 -68 77 -67 77 -1106 1 -1106 0
-76 -79 -77 -79 -1 -893 c0 -492 -3 -888 -6 -881 -2 6 -12 12 -20 12 -9 0 -29
14 -45 30 -38 40 -48 38 -48 -10 l0 -40 -80 0 -80 0 -2 1078 c-3 1230 -14
1098 93 1130 49 14 59 21 59 40 0 12 5 22 11 22 20 0 154 62 494 230 590 290
615 302 789 362 85 30 91 30 155 19 36 -7 107 -30 157 -51 171 -73 585 -282
888 -450 64 -35 172 -110 254 -176 l32 -27 0 34 c0 19 4 29 8 23 4 -6 32 -25
62 -41 62 -35 68 -51 69 -174 1 -45 6 -70 15 -79 8 -6 17 -26 19 -43 2 -18 5
0 5 38 l2 71 165 54 c119 39 165 59 165 70 0 10 -76 53 -215 121 -118 59 -334
169 -479 245 l-265 139 3 33 c2 32 18 52 42 52 10 0 24 21 24 35 0 2 -26 9
-57 15 -67 13 -170 45 -228 71 -21 10 -43 15 -47 13 -4 -3 -8 0 -8 6 0 7 -7 5
-16 -4 -8 -9 -20 -16 -25 -16 -6 0 -8 -4 -4 -9 3 -5 1 -12 -5 -16 -5 -3 -10
-1 -10 4 0 6 -3 10 -7 9 -13 -3 -53 13 -53 21 0 4 -6 8 -12 8 -7 0 -94 45
-193 100 -203 113 -281 153 -292 152 -4 0 -219 -109 -478 -241z m1335 -1072
c154 -8 180 -17 225 -69 l35 -41 0 -148 0 -148 -122 -2 -123 -2 123 -3 122 -4
0 -219 0 -220 -22 -1 -23 -2 23 -4 c22 -4 22 -6 22 -169 l0 -164 -1175 0
-1175 0 0 165 0 165 38 2 37 1 -37 4 -38 4 0 220 0 219 128 2 127 2 -127 3
-128 4 0 130 c0 143 9 177 56 220 49 44 82 50 286 57 249 9 1584 7 1748 -2z
m260 -1491 l0 -285 -67 -2 -68 -1 65 -7 c36 -4 -456 -7 -1092 -8 -636 -1
-1163 1 -1172 4 -14 5 -16 41 -16 295 l0 289 1175 0 1175 0 0 -285z m-2457
-302 c-7 -2 -19 -2 -25 0 -7 3 -2 5 12 5 14 0 19 -2 13 -5z"/>
<path d="M3881 3143 c22 -28 58 -63 64 -63 3 0 5 18 5 40 l0 40 -41 0 c-38 0
-40 -1 -28 -17z"/>
</g>
</svg>
